<?xml version="1.0" standalone="no"?>
<!DOCTYPE svg PUBLIC "-//W3C//DTD SVG 20010904//EN"
 "http://www.w3.org/TR/2001/REC-SVG-20010904/DTD/svg10.dtd">
<svg version="1.0" xmlns="http://www.w3.org/2000/svg"
 width="200.000000pt" height="200.000000pt" viewBox="0 0 200.000000 200.000000"
 preserveAspectRatio="xMidYMid meet">
<metadata>
Created by potrace 1.11, written by Peter Selinger 2001-2013
</metadata>
<g transform="translate(0.000000,200.000000) scale(0.100000,-0.100000)"
fill="#000000" stroke="none">
<path d="M707 1643 c-7 -8 -25 -15 -38 -15 -13 -1 -31 -7 -39 -14 -8 -7 -34
-18 -58 -25 -44 -13 -97 -63 -86 -81 3 -5 -1 -15 -9 -21 -24 -20 -53 -77 -42
-85 6 -4 11 -47 13 -97 2 -49 8 -108 14 -129 9 -35 7 -47 -18 -99 l-29 -59 33
-26 c18 -15 32 -33 32 -40 0 -7 -26 17 -58 54 -84 100 -134 148 -200 192 -32
23 -78 61 -102 86 -49 51 -91 61 -110 27 -12 -24 -14 -151 -1 -151 5 0 14 7
21 15 18 22 28 19 49 -16 26 -42 15 -75 -34 -102 -32 -18 -41 -29 -43 -55 -4
-38 -3 -38 50 -11 23 12 73 25 111 31 64 9 71 8 92 -12 12 -11 39 -60 60 -108
20 -48 54 -123 75 -167 37 -77 38 -82 26 -127 -7 -28 -9 -73 -6 -109 6 -63 11
-71 69 -109 21 -14 22 -18 12 -80 -6 -36 -11 -108 -11 -160 0 -52 -5 -102 -10
-110 -6 -10 -10 -11 -10 -3 0 12 -31 12 -137 -2 -32 -4 -73 -21 -73 -30 0 -3
394 -5 875 -5 l875 0 0 90 c0 75 -2 88 -15 84 -8 -4 -15 -11 -15 -16 0 -6 -11
-7 -24 -4 -14 3 -27 2 -31 -4 -4 -6 -15 -6 -30 0 -20 8 -25 6 -25 -5 0 -20
-47 -38 -78 -30 -13 3 -21 2 -18 -3 3 -5 -8 -9 -24 -9 -17 0 -30 4 -30 8 0 4
-7 9 -14 12 -10 4 -13 1 -10 -7 8 -20 -55 -26 -97 -9 -21 8 -43 13 -50 12 -8
-2 -57 1 -109 5 -70 5 -118 3 -184 -8 -49 -9 -91 -14 -93 -12 -7 7 9 196 17
196 4 0 15 19 25 42 16 40 18 42 31 23 8 -10 14 -22 14 -27 0 -4 5 -8 11 -8 8
0 7 6 -2 17 -13 15 -12 15 9 2 12 -8 25 -25 29 -39 3 -14 12 -38 21 -55 8 -16
18 -37 22 -45 4 -8 16 -19 28 -25 12 -5 22 -19 22 -30 1 -19 1 -19 14 -2 7 9
21 17 30 17 20 0 21 23 1 40 -8 7 -13 16 -10 20 2 4 -5 24 -16 46 -11 21 -14
32 -7 23 7 -8 21 -18 32 -22 12 -5 16 -13 12 -23 -5 -13 -3 -14 7 -6 10 9 13
5 15 -18 1 -16 6 -39 11 -52 7 -19 9 -15 15 26 5 31 4 52 -3 59 -6 6 -11 16
-11 22 0 5 4 5 8 -2 8 -13 82 -47 82 -38 0 2 -12 11 -27 19 -16 8 -22 15 -15
16 19 0 53 -19 83 -47 18 -16 29 -21 34 -14 3 6 10 9 15 6 5 -3 11 -1 14 4 6
9 -53 76 -67 76 -4 0 -23 15 -43 34 -26 26 -32 37 -22 44 10 6 9 8 -3 4 -27
-9 -49 28 -49 81 l0 47 24 -50 c14 -28 39 -60 58 -73 104 -71 160 -104 166
-97 4 3 -2 13 -12 21 -25 18 -14 29 14 14 12 -6 24 -9 26 -7 8 8 -50 45 -63
40 -29 -10 -143 68 -143 99 0 6 88 -48 118 -73 7 -6 17 -9 22 -7 5 2 -18 23
-51 47 -58 42 -87 77 -75 88 3 3 29 -19 58 -50 38 -41 60 -57 78 -57 23 1 21
3 -13 21 -21 11 -35 24 -32 29 4 6 3 10 -2 10 -9 0 -33 48 -33 67 0 18 9 16
59 -8 70 -33 58 -15 -21 33 -40 25 -73 49 -73 54 0 6 -8 19 -18 29 -17 16 -17
19 -3 27 8 5 13 15 10 23 -4 8 -1 15 5 15 6 0 11 -4 11 -9 0 -17 67 -51 101
-51 l34 1 -39 14 c-43 15 -101 66 -86 75 11 7 -5 77 -23 98 -8 10 -7 16 4 23
12 8 12 10 -1 8 -28 -3 -37 1 -37 17 0 12 7 15 31 11 17 -3 25 -3 19 0 -20 8
-15 21 10 26 16 2 10 7 -26 16 -63 18 -68 29 -9 25 l47 -4 -60 18 c-79 24 -93
32 -71 44 9 5 22 6 29 2 9 -5 9 -4 1 5 -8 8 -18 8 -42 0 -26 -9 -35 -8 -54 6
l-23 17 33 -6 c17 -3 32 -1 32 4 0 12 -36 22 -57 16 -26 -8 -48 9 -48 38 -1
21 2 23 20 15 20 -10 20 -10 0 5 -58 44 -66 58 -96 174 -19 75 -33 99 -104
187 -94 116 -166 162 -240 152 -24 -4 -57 -2 -75 3 -24 7 -40 5 -62 -6 -16 -9
-32 -13 -35 -10 -3 3 5 10 18 15 28 11 26 12 -23 15 -21 2 -43 -3 -51 -11z
m703 -623 c13 -8 13 -10 -2 -10 -9 0 -20 5 -23 10 -8 13 5 13 25 0z m71 -35
c19 -8 29 -14 23 -15 -7 0 -27 7 -45 15 -19 8 -29 14 -23 15 7 0 27 -7 45 -15z
m-38 -52 c-7 -2 -19 -2 -25 0 -7 3 -2 5 12 5 14 0 19 -2 13 -5z m50 -20 c-7
-2 -19 -2 -25 0 -7 3 -2 5 12 5 14 0 19 -2 13 -5z m-796 -140 c-8 -7 -37 9
-31 19 3 5 12 4 20 -3 8 -6 13 -14 11 -16z m883 -228 c7 -9 11 -17 8 -20 -2
-2 -12 4 -21 15 -9 11 -13 20 -8 20 5 0 14 -7 21 -15z m-231 -130 c0 -5 -4 -3
-9 5 -5 8 -9 22 -9 30 0 16 17 -16 18 -35z m-168 -78 c-13 -13 -15 15 -3 53 7
24 7 23 10 -9 2 -18 -1 -38 -7 -44z m335 22 c19 -22 19 -22 -3 -10 -13 6 -23
16 -23 21 0 15 5 12 26 -11z m-156 -104 c11 -13 10 -14 -4 -9 -9 3 -16 10 -16
15 0 13 6 11 20 -6z m17 -51 c-7 -7 -37 7 -37 17 0 6 9 5 21 -1 11 -7 19 -14
16 -16z"/>
<path d="M660 1640 c0 -5 7 -7 15 -4 8 4 15 8 15 10 0 2 -7 4 -15 4 -8 0 -15
-4 -15 -10z"/>
<path d="M1360 1092 c0 -5 7 -13 16 -16 10 -4 14 -1 12 6 -5 15 -28 23 -28 10z"/>
<path d="M1635 770 c3 -5 16 -10 28 -9 21 0 21 1 2 9 -28 12 -37 12 -30 0z"/>
<path d="M1630 716 c0 -2 7 -9 15 -16 13 -11 14 -10 9 4 -5 14 -24 23 -24 12z"/>
</g>
</svg>
